<mxfile host="app.diagrams.net" modified="2023-04-18T16:47:17.214Z" agent="Mozilla/5.0 (Windows NT 10.0; Win64; x64) AppleWebKit/537.36 (KHTML, like Gecko) Chrome/112.0.0.0 Safari/537.36" etag="Gvz9_bdh7UFDaRUlfyTM" version="21.1.8" type="device">
  <diagram name="Страница 1" id="QvNEZuV5bvE-snmXYODY">
    <mxGraphModel dx="1434" dy="788" grid="1" gridSize="10" guides="1" tooltips="1" connect="1" arrows="1" fold="1" page="1" pageScale="1" pageWidth="827" pageHeight="1169" math="0" shadow="0">
      <root>
        <mxCell id="0" />
        <mxCell id="1" parent="0" />
        <mxCell id="7lhVIQMcFWrBL3z8Hd3J-1" value="Accounts&lt;br&gt;" style="whiteSpace=wrap;html=1;aspect=fixed;" vertex="1" parent="1">
          <mxGeometry x="85" y="510" width="150" height="150" as="geometry" />
        </mxCell>
        <mxCell id="7lhVIQMcFWrBL3z8Hd3J-2" value="File&lt;br&gt;" style="whiteSpace=wrap;html=1;aspect=fixed;" vertex="1" parent="1">
          <mxGeometry x="90" y="310" width="140" height="140" as="geometry" />
        </mxCell>
        <mxCell id="7lhVIQMcFWrBL3z8Hd3J-11" style="edgeStyle=orthogonalEdgeStyle;rounded=0;orthogonalLoop=1;jettySize=auto;html=1;" edge="1" parent="1" source="7lhVIQMcFWrBL3z8Hd3J-3">
          <mxGeometry relative="1" as="geometry">
            <mxPoint x="570" y="370" as="targetPoint" />
            <Array as="points">
              <mxPoint x="600" y="370" />
              <mxPoint x="600" y="370" />
            </Array>
          </mxGeometry>
        </mxCell>
        <mxCell id="7lhVIQMcFWrBL3z8Hd3J-3" value="User&lt;br&gt;" style="whiteSpace=wrap;html=1;aspect=fixed;" vertex="1" parent="1">
          <mxGeometry x="414" y="300" width="140" height="140" as="geometry" />
        </mxCell>
        <mxCell id="7lhVIQMcFWrBL3z8Hd3J-4" value="Tag&lt;br&gt;" style="whiteSpace=wrap;html=1;aspect=fixed;" vertex="1" parent="1">
          <mxGeometry x="90" y="110" width="140" height="140" as="geometry" />
        </mxCell>
        <mxCell id="7lhVIQMcFWrBL3z8Hd3J-5" value="Notify&lt;br&gt;" style="whiteSpace=wrap;html=1;aspect=fixed;" vertex="1" parent="1">
          <mxGeometry x="414" y="100" width="150" height="150" as="geometry" />
        </mxCell>
        <mxCell id="7lhVIQMcFWrBL3z8Hd3J-8" style="edgeStyle=orthogonalEdgeStyle;rounded=0;orthogonalLoop=1;jettySize=auto;html=1;exitX=0.5;exitY=1;exitDx=0;exitDy=0;" edge="1" parent="1" source="7lhVIQMcFWrBL3z8Hd3J-7">
          <mxGeometry relative="1" as="geometry">
            <mxPoint x="489" y="670" as="targetPoint" />
          </mxGeometry>
        </mxCell>
        <mxCell id="7lhVIQMcFWrBL3z8Hd3J-7" value="Task&lt;br&gt;" style="whiteSpace=wrap;html=1;aspect=fixed;" vertex="1" parent="1">
          <mxGeometry x="414" y="510" width="150" height="150" as="geometry" />
        </mxCell>
        <mxCell id="7lhVIQMcFWrBL3z8Hd3J-12" style="edgeStyle=orthogonalEdgeStyle;rounded=0;orthogonalLoop=1;jettySize=auto;html=1;" edge="1" parent="1" source="7lhVIQMcFWrBL3z8Hd3J-9">
          <mxGeometry relative="1" as="geometry">
            <mxPoint x="560" y="370" as="targetPoint" />
          </mxGeometry>
        </mxCell>
        <mxCell id="7lhVIQMcFWrBL3z8Hd3J-13" style="edgeStyle=orthogonalEdgeStyle;rounded=0;orthogonalLoop=1;jettySize=auto;html=1;" edge="1" parent="1" source="7lhVIQMcFWrBL3z8Hd3J-9">
          <mxGeometry relative="1" as="geometry">
            <mxPoint x="680" y="180" as="targetPoint" />
          </mxGeometry>
        </mxCell>
        <mxCell id="7lhVIQMcFWrBL3z8Hd3J-9" value="" style="ellipse;whiteSpace=wrap;html=1;aspect=fixed;" vertex="1" parent="1">
          <mxGeometry x="600" y="330" width="80" height="80" as="geometry" />
        </mxCell>
      </root>
    </mxGraphModel>
  </diagram>
</mxfile>
